<svg width="1615" height="1253" viewBox="0 0 1615 1253" fill="none" xmlns="http://www.w3.org/2000/svg">
<path fill-rule="evenodd" clip-rule="evenodd" d="M105.5 249C163.766 249 211 201.766 211 143.5C211 85.234 163.766 38 105.5 38C47.234 38 0 85.234 0 143.5C0 201.766 47.234 249 105.5 249ZM105.5 209C141.675 209 171 179.675 171 143.5C171 107.325 141.675 78 105.5 78C69.3253 78 40 107.325 40 143.5C40 179.675 69.3253 209 105.5 209Z" fill="#AFDEFA"/>
<path fill-rule="evenodd" clip-rule="evenodd" d="M246 319C265.33 319 281 303.33 281 284C281 264.67 265.33 249 246 249C226.67 249 211 264.67 211 284C211 303.33 226.67 319 246 319ZM246 305.73C258.001 305.73 267.73 296.001 267.73 284C267.73 271.999 258.001 262.27 246 262.27C233.999 262.27 224.27 271.999 224.27 284C224.27 296.001 233.999 305.73 246 305.73Z" fill="#AFDEFA"/>
<path fill-rule="evenodd" clip-rule="evenodd" d="M348.655 105.802L334.618 97.6979L314.92 131.816L280.802 112.118L272.698 126.155L306.816 145.853L287.118 179.97L301.155 188.075L320.853 153.957L354.97 173.655L363.075 159.618L328.957 139.92L348.655 105.802Z" fill="white"/>
<path fill-rule="evenodd" clip-rule="evenodd" d="M153.25 429.783L153.25 285.157L28 357.47L153.25 429.783ZM133.623 395.787L133.623 319.152L67.255 357.47L133.623 395.787Z" fill="white"/>
<path fill-rule="evenodd" clip-rule="evenodd" d="M466.503 162.353L578.976 71.4324L444 19.4879L466.503 162.353ZM480.602 125.717L540.199 77.5402L468.678 50.0158L480.602 125.717Z" fill="#AFDEFA"/>
<path fill-rule="evenodd" clip-rule="evenodd" d="M119.655 512.802L105.618 504.698L85.9198 538.816L51.8021 519.118L43.6979 533.155L77.8156 552.853L58.1177 586.97L72.1547 595.075L91.8526 560.957L125.97 580.655L134.075 566.618L99.9568 546.92L119.655 512.802Z" fill="#AFDEFA"/>
<path fill-rule="evenodd" clip-rule="evenodd" d="M153.303 1086L9 1169.31L153.303 1252.63L153.303 1086ZM130.689 1125.17L54.2263 1169.31L130.689 1213.46L130.689 1125.17Z" fill="white"/>
<path fill-rule="evenodd" clip-rule="evenodd" d="M275 1241C307.585 1241 334 1214.58 334 1182C334 1149.42 307.585 1123 275 1123C242.415 1123 216 1149.42 216 1182C216 1214.58 242.415 1241 275 1241ZM275 1218.63C295.23 1218.63 311.63 1202.23 311.63 1182C311.63 1161.77 295.23 1145.37 275 1145.37C254.77 1145.37 238.37 1161.77 238.37 1182C238.37 1202.23 254.77 1218.63 275 1218.63Z" fill="#AFDEFA"/>
<path fill-rule="evenodd" clip-rule="evenodd" d="M478.655 1150.8L464.618 1142.7L444.92 1176.82L410.802 1157.12L402.698 1171.15L436.816 1190.85L417.118 1224.97L431.155 1233.07L450.853 1198.96L484.97 1218.65L493.075 1204.62L458.957 1184.92L478.655 1150.8Z" fill="white"/>
<path fill-rule="evenodd" clip-rule="evenodd" d="M1488.87 926.154C1431.67 915.023 1376.29 952.364 1365.15 1009.56C1354.02 1066.75 1391.36 1122.14 1448.56 1133.27C1505.75 1144.4 1561.14 1107.06 1572.27 1049.87C1583.4 992.672 1546.06 937.285 1488.87 926.154ZM1481.22 965.418C1445.72 958.507 1411.33 981.69 1404.42 1017.2C1397.51 1052.71 1420.69 1087.09 1456.2 1094C1491.71 1100.92 1526.09 1077.73 1533.01 1042.22C1539.92 1006.72 1516.73 972.328 1481.22 965.418Z" fill="white"/>
<path fill-rule="evenodd" clip-rule="evenodd" d="M1354.74 803.633C1335.77 799.94 1317.39 812.328 1313.7 831.302C1310.01 850.276 1322.39 868.651 1341.37 872.343C1360.34 876.036 1378.72 863.648 1382.41 844.674C1386.1 825.7 1373.71 807.325 1354.74 803.633ZM1352.2 816.658C1340.42 814.366 1329.02 822.057 1326.72 833.837C1324.43 845.617 1332.12 857.025 1343.9 859.318C1355.68 861.61 1367.09 853.919 1369.38 842.139C1371.68 830.359 1363.98 818.951 1352.2 816.658Z" fill="#AFDEFA"/>
<path fill-rule="evenodd" clip-rule="evenodd" d="M1123.73 1147.69C1104.75 1143.99 1086.38 1156.38 1082.69 1175.36C1078.99 1194.33 1091.38 1212.7 1110.36 1216.4C1129.33 1220.09 1147.7 1207.7 1151.4 1188.73C1155.09 1169.75 1142.7 1151.38 1123.73 1147.69ZM1121.19 1160.71C1109.41 1158.42 1098 1166.11 1095.71 1177.89C1093.42 1189.67 1101.11 1201.08 1112.89 1203.37C1124.67 1205.66 1136.08 1197.97 1138.37 1186.19C1140.66 1174.41 1132.97 1163 1121.19 1160.71Z" fill="#AFDEFA"/>
<path fill-rule="evenodd" clip-rule="evenodd" d="M1380.67 609.78C1355.76 604.931 1331.63 621.198 1326.78 646.113C1321.93 671.029 1338.2 695.157 1363.11 700.006C1388.03 704.855 1412.16 688.588 1417.01 663.673C1421.86 638.758 1405.59 614.629 1380.67 609.78ZM1377.34 626.884C1361.88 623.874 1346.9 633.973 1343.88 649.442C1340.87 664.911 1350.97 679.891 1366.44 682.902C1381.91 685.912 1396.89 675.813 1399.9 660.344C1402.91 644.875 1392.81 629.895 1377.34 626.884Z" fill="white"/>
<path fill-rule="evenodd" clip-rule="evenodd" d="M1103.67 203.78C1078.76 198.931 1054.63 215.198 1049.78 240.113C1044.93 265.028 1061.2 289.157 1086.11 294.006C1111.03 298.855 1135.16 282.588 1140.01 257.673C1144.86 232.758 1128.59 208.629 1103.67 203.78ZM1100.34 220.884C1084.88 217.874 1069.9 227.973 1066.88 243.442C1063.87 258.911 1073.97 273.891 1089.44 276.902C1104.91 279.912 1119.89 269.813 1122.9 254.344C1125.91 238.875 1115.81 223.895 1100.34 220.884Z" fill="white"/>
<path fill-rule="evenodd" clip-rule="evenodd" d="M1213.25 993.293L1225.48 1003.93L1251.33 974.204L1281.06 1000.06L1291.69 987.826L1261.97 961.973L1287.82 932.247L1275.59 921.61L1249.74 951.337L1220.01 925.484L1209.37 937.714L1239.1 963.567L1213.25 993.293Z" fill="white"/>
<path fill-rule="evenodd" clip-rule="evenodd" d="M1466.94 712.608L1439.32 854.571L1576.07 807.517L1466.94 712.608ZM1479.72 749.728L1465.08 824.951L1537.54 800.018L1479.72 749.728Z" fill="#AFDEFA"/>
<path fill-rule="evenodd" clip-rule="evenodd" d="M1509.73 625.536L1521.96 636.172L1547.81 606.446L1577.54 632.299L1588.17 620.068L1558.45 594.216L1584.3 564.489L1572.07 553.853L1546.22 583.579L1516.49 557.726L1505.85 569.957L1535.58 595.809L1509.73 625.536Z" fill="white"/>
<path fill-rule="evenodd" clip-rule="evenodd" d="M1339.36 276.045C1305.55 323.5 1316.61 389.377 1364.07 423.183C1411.53 456.99 1477.4 445.925 1511.21 398.47C1545.02 351.014 1533.95 285.138 1486.5 251.331C1439.04 217.524 1373.16 228.589 1339.36 276.045ZM1371.94 299.253C1350.95 328.716 1357.82 369.616 1387.28 390.605C1416.74 411.594 1457.64 404.724 1478.63 375.261C1499.62 345.798 1492.75 304.899 1463.29 283.91C1433.82 262.921 1392.92 269.79 1371.94 299.253Z" fill="white"/>
<path fill-rule="evenodd" clip-rule="evenodd" d="M1314.9 557.171L1329.65 550.441L1313.29 514.602L1349.13 498.243L1342.4 483.498L1306.56 499.857L1290.2 464.018L1275.46 470.748L1291.82 506.587L1255.98 522.946L1262.71 537.691L1298.55 521.332L1314.9 557.171Z" fill="#AFDEFA"/>
<path fill-rule="evenodd" clip-rule="evenodd" d="M1297.29 1205.51L1312.03 1198.78L1295.67 1162.94L1331.51 1146.58L1324.78 1131.84L1288.94 1148.2L1272.58 1112.36L1257.84 1119.09L1274.2 1154.93L1238.36 1171.29L1245.09 1186.03L1280.93 1169.67L1297.29 1205.51Z" fill="white"/>
<path fill-rule="evenodd" clip-rule="evenodd" d="M1164.41 210.043L1282.2 293.957L1295.98 149.988L1164.41 210.043ZM1203.49 213.782L1265.9 258.246L1273.2 181.96L1203.49 213.782Z" fill="#AFDEFA"/>
<path fill-rule="evenodd" clip-rule="evenodd" d="M966.437 66L942.76 187.657L1059.96 147.333L966.437 66ZM977.382 97.81L964.836 162.274L1026.94 140.907L977.382 97.81Z" fill="#AFDEFA"/>
<path fill-rule="evenodd" clip-rule="evenodd" d="M1517.5 234.82L1545.21 222.171L1514.46 154.814L1581.82 124.069L1569.17 96.3565L1501.81 127.102L1471.07 59.7452L1443.36 72.3946L1474.1 139.751L1406.75 170.496L1419.39 198.209L1486.75 167.463L1517.5 234.82Z" fill="#AFDEFA"/>
</svg>
