<svg width="1658" height="1332" viewBox="0 0 1658 1332" fill="none" xmlns="http://www.w3.org/2000/svg">
<path fill-rule="evenodd" clip-rule="evenodd" d="M154.707 905.231C212.736 899.974 264.039 942.754 269.295 1000.78C274.552 1058.81 231.772 1110.11 173.744 1115.37C115.716 1120.63 64.4128 1077.85 59.1559 1019.82C53.8991 961.791 96.6789 910.488 154.707 905.231ZM158.316 945.068C194.343 941.804 226.195 968.364 229.459 1004.39C232.722 1040.42 206.162 1072.27 170.135 1075.53C134.108 1078.8 102.257 1052.24 98.9928 1016.21C95.7291 980.183 122.289 948.332 158.316 945.068Z" fill="white"/>
<path fill-rule="evenodd" clip-rule="evenodd" d="M300.597 796.985C319.849 795.241 336.868 809.433 338.612 828.684C340.356 847.935 326.164 864.955 306.913 866.699C287.662 868.443 270.642 854.251 268.898 835C267.154 815.748 281.346 798.729 300.597 796.985ZM301.795 810.201C313.747 809.118 324.314 817.929 325.396 829.881C326.479 841.833 317.668 852.4 305.716 853.483C293.764 854.566 283.197 845.754 282.114 833.802C281.031 821.85 289.843 811.283 301.795 810.201Z" fill="#AFDEFA"/>
<path fill-rule="evenodd" clip-rule="evenodd" d="M495.423 1162.75C514.674 1161 531.694 1175.2 533.438 1194.45C535.182 1213.7 520.99 1230.72 501.739 1232.46C482.487 1234.21 465.468 1220.01 463.724 1200.76C461.98 1181.51 476.172 1164.49 495.423 1162.75ZM496.62 1175.96C508.572 1174.88 519.139 1183.69 520.222 1195.64C521.305 1207.6 512.493 1218.16 500.541 1219.25C488.589 1220.33 478.022 1211.52 476.94 1199.56C475.857 1187.61 484.668 1177.05 496.62 1175.96Z" fill="#AFDEFA"/>
<path fill-rule="evenodd" clip-rule="evenodd" d="M294.512 601.5C319.792 599.21 342.141 617.846 344.431 643.125C346.721 668.405 328.085 690.754 302.805 693.044C277.526 695.334 255.177 676.698 252.887 651.418C250.597 626.139 269.233 603.79 294.512 601.5ZM296.084 618.854C311.779 617.432 325.655 629.003 327.077 644.697C328.498 660.392 316.928 674.268 301.233 675.69C285.539 677.111 271.663 665.541 270.241 649.846C268.819 634.152 280.39 620.276 296.084 618.854Z" fill="white"/>
<path fill-rule="evenodd" clip-rule="evenodd" d="M611.364 225.774C636.644 223.484 658.993 242.12 661.283 267.4C663.573 292.679 644.937 315.028 619.657 317.318C594.378 319.608 572.029 300.972 569.739 275.693C567.449 250.413 586.085 228.064 611.364 225.774ZM612.937 243.128C628.631 241.706 642.507 253.277 643.929 268.972C645.351 284.666 633.78 298.542 618.085 299.964C602.391 301.386 588.515 289.815 587.093 274.12C585.671 258.426 597.242 244.55 612.937 243.128Z" fill="white"/>
<path fill-rule="evenodd" clip-rule="evenodd" d="M422.069 1000.05L408.82 1009.39L386.124 977.188L353.923 999.883L344.585 986.635L376.787 963.939L354.091 931.738L367.34 922.4L390.035 954.601L422.237 931.906L431.574 945.154L399.373 967.85L422.069 1000.05Z" fill="white"/>
<path fill-rule="evenodd" clip-rule="evenodd" d="M198.231 695.022L211.279 839.058L80.016 778.34L198.231 695.022ZM181.751 730.65L188.665 806.972L119.111 774.798L181.751 730.65Z" fill="#AFDEFA"/>
<path fill-rule="evenodd" clip-rule="evenodd" d="M164.526 604.05L151.277 613.388L128.581 581.186L96.38 603.882L87.0423 590.633L119.244 567.938L96.548 535.736L109.797 526.399L132.492 558.6L164.694 535.904L174.031 549.153L141.83 571.849L164.526 604.05Z" fill="white"/>
<path fill-rule="evenodd" clip-rule="evenodd" d="M369.553 273.696C398.359 324.344 380.652 388.753 330.005 417.559C279.357 446.364 214.948 428.658 186.142 378.01C157.337 327.362 175.043 262.953 225.691 234.148C276.339 205.342 340.748 223.049 369.553 273.696ZM334.783 293.471C352.667 324.916 341.674 364.905 310.23 382.789C278.785 400.673 238.796 389.68 220.912 358.235C203.028 326.79 214.021 286.801 245.466 268.918C276.911 251.034 316.9 262.027 334.783 293.471Z" fill="white"/>
<path fill-rule="evenodd" clip-rule="evenodd" d="M365.289 555.852L351.305 547.657L371.224 513.667L337.234 493.749L345.429 479.765L379.419 499.683L399.337 465.694L413.322 473.889L393.403 507.878L427.392 527.797L419.197 541.781L385.208 521.862L365.289 555.852Z" fill="#AFDEFA"/>
<path fill-rule="evenodd" clip-rule="evenodd" d="M316.883 1202.62L302.899 1194.43L322.818 1160.44L288.828 1140.52L297.023 1126.54L331.013 1146.45L350.931 1112.47L364.915 1120.66L344.997 1154.65L378.986 1174.57L370.791 1188.55L336.802 1168.63L316.883 1202.62Z" fill="white"/>
<path fill-rule="evenodd" clip-rule="evenodd" d="M550.305 225.828L424.589 297.328L425.526 152.705L550.305 225.828ZM511.05 225.573L444.436 263.46L444.933 186.827L511.05 225.573Z" fill="#AFDEFA"/>
<path fill-rule="evenodd" clip-rule="evenodd" d="M761.901 102.665L773.083 226.099L660.594 174.066L761.901 102.665ZM747.778 133.197L753.703 198.602L694.098 171.031L747.778 133.197Z" fill="#AFDEFA"/>
<path fill-rule="evenodd" clip-rule="evenodd" d="M196.53 214.569L170.247 199.167L207.683 135.287L143.802 97.8511L159.204 71.5688L223.085 109.004L260.521 45.1237L286.803 60.5257L249.367 124.406L313.248 161.842L297.846 188.124L233.965 150.689L196.53 214.569Z" fill="#AFDEFA"/>
<path fill-rule="evenodd" clip-rule="evenodd" d="M1531.87 1034.15C1474.67 1023.02 1419.29 1060.36 1408.15 1117.56C1397.02 1174.75 1434.36 1230.14 1491.56 1241.27C1548.75 1252.4 1604.14 1215.06 1615.27 1157.87C1626.4 1100.67 1589.06 1045.28 1531.87 1034.15ZM1524.22 1073.42C1488.72 1066.51 1454.33 1089.69 1447.42 1125.2C1440.51 1160.71 1463.69 1195.09 1499.2 1202C1534.71 1208.92 1569.09 1185.73 1576.01 1150.22C1582.92 1114.72 1559.73 1080.33 1524.22 1073.42Z" fill="white"/>
<path fill-rule="evenodd" clip-rule="evenodd" d="M1397.74 911.633C1378.77 907.94 1360.39 920.328 1356.7 939.302C1353.01 958.276 1365.39 976.651 1384.37 980.343C1403.34 984.036 1421.72 971.648 1425.41 952.674C1429.1 933.7 1416.71 915.325 1397.74 911.633ZM1395.2 924.658C1383.42 922.366 1372.02 930.057 1369.72 941.837C1367.43 953.617 1375.12 965.025 1386.9 967.318C1398.68 969.61 1410.09 961.919 1412.38 950.139C1414.68 938.359 1406.98 926.951 1395.2 924.658Z" fill="#AFDEFA"/>
<path fill-rule="evenodd" clip-rule="evenodd" d="M1166.73 1255.69C1147.75 1251.99 1129.38 1264.38 1125.69 1283.36C1121.99 1302.33 1134.38 1320.7 1153.36 1324.4C1172.33 1328.09 1190.7 1315.7 1194.4 1296.73C1198.09 1277.75 1185.7 1259.38 1166.73 1255.69ZM1164.19 1268.71C1152.41 1266.42 1141 1274.11 1138.71 1285.89C1136.42 1297.67 1144.11 1309.08 1155.89 1311.37C1167.67 1313.66 1179.08 1305.97 1181.37 1294.19C1183.66 1282.41 1175.97 1271 1164.19 1268.71Z" fill="#AFDEFA"/>
<path fill-rule="evenodd" clip-rule="evenodd" d="M1177.67 270.78C1152.76 265.931 1128.63 282.198 1123.78 307.113C1118.93 332.028 1135.2 356.157 1160.11 361.006C1185.03 365.855 1209.16 349.588 1214.01 324.673C1218.86 299.758 1202.59 275.629 1177.67 270.78ZM1174.34 287.884C1158.88 284.874 1143.9 294.973 1140.88 310.442C1137.87 325.911 1147.97 340.891 1163.44 343.902C1178.91 346.912 1193.89 336.813 1196.9 321.344C1199.91 305.875 1189.81 290.895 1174.34 287.884Z" fill="white"/>
<path fill-rule="evenodd" clip-rule="evenodd" d="M1509.94 820.608L1482.32 962.571L1619.07 915.517L1509.94 820.608ZM1522.72 857.728L1508.08 932.951L1580.54 908.018L1522.72 857.728Z" fill="#AFDEFA"/>
<path fill-rule="evenodd" clip-rule="evenodd" d="M1552.73 733.536L1564.96 744.172L1590.81 714.446L1620.54 740.299L1631.17 728.068L1601.45 702.216L1627.3 672.489L1615.07 661.853L1589.22 691.579L1559.49 665.726L1548.85 677.957L1578.58 703.809L1552.73 733.536Z" fill="white"/>
<path fill-rule="evenodd" clip-rule="evenodd" d="M1425.83 396.894C1406.59 423.898 1412.89 461.383 1439.89 480.62C1466.9 499.857 1504.38 493.561 1523.62 466.558C1542.86 439.554 1536.56 402.069 1509.56 382.832C1482.55 363.595 1445.07 369.891 1425.83 396.894ZM1444.37 410.101C1432.43 426.866 1436.34 450.139 1453.1 462.082C1469.87 474.026 1493.14 470.117 1505.08 453.351C1517.03 436.586 1513.12 413.313 1496.35 401.37C1479.59 389.426 1456.31 393.335 1444.37 410.101Z" fill="white"/>
<path fill-rule="evenodd" clip-rule="evenodd" d="M1340.29 1313.51L1355.03 1306.78L1338.67 1270.94L1374.51 1254.58L1367.78 1239.84L1331.94 1256.2L1315.58 1220.36L1300.84 1227.09L1317.2 1262.93L1281.36 1279.29L1288.09 1294.03L1323.93 1277.67L1340.29 1313.51Z" fill="white"/>
<path fill-rule="evenodd" clip-rule="evenodd" d="M1253 322.055L1370.79 405.969L1384.57 262L1253 322.055ZM1292.08 325.794L1354.49 370.258L1361.79 293.972L1292.08 325.794Z" fill="#AFDEFA"/>
<path fill-rule="evenodd" clip-rule="evenodd" d="M1009.44 174L985.76 295.657L1102.96 255.333L1009.44 174ZM1020.38 205.81L1007.84 270.274L1069.94 248.907L1020.38 205.81Z" fill="#AFDEFA"/>
<path fill-rule="evenodd" clip-rule="evenodd" d="M1560.5 342.82L1588.21 330.171L1557.46 262.814L1624.82 232.069L1612.17 204.357L1544.81 235.102L1514.07 167.745L1486.36 180.395L1517.1 247.751L1449.75 278.496L1462.39 306.209L1529.75 275.463L1560.5 342.82Z" fill="#AFDEFA"/>
</svg>
